<svg xmlns="http://www.w3.org/2000/svg" width="256" height="256" viewBox="0 0 256 256">
  <defs>
    <linearGradient id="g" x1="0" y1="0" x2="1" y2="1">
      <stop offset="0%" stop-color="#1f6feb"/>
      <stop offset="100%" stop-color="#4fb3ff"/>
    </linearGradient>
  </defs>
  <rect x="24" y="24" width="208" height="208" rx="28" fill="#ffffff"/>
  <g transform="translate(52,52)">
    <!-- Tag shape -->
    <path d="M48 16h64c8.837 0 16 7.163 16 16v40.686a16 16 0 0 1-4.686 11.314l-56 56A16 16 0 0 1 68.686 144H28a12 12 0 0 1-12-12V72.686a16 16 0 0 1 4.686-11.314l56-56A16 16 0 0 1 88 0Z" fill="url(#g)" opacity="0.12"/>
    <path d="M48 16h64c8.8 0 16 7.2 16 16v40.7c0 4.2-1.7 8.3-4.7 11.3l-56 56a16 16 0 0 1-22.6 0L16 130.3A16 16 0 0 1 11.3 119L67.3 63c3-3 7.1-4.7 11.3-4.7H96" fill="none" stroke="url(#g)" stroke-width="10" stroke-linecap="round" stroke-linejoin="round"/>
    <!-- Tag hole -->
    <circle cx="98" cy="42" r="10" fill="url(#g)"/>
    <!-- 0x stylized mark -->
    <g transform="translate(18,86)" fill="none" stroke="url(#g)" stroke-width="10" stroke-linecap="round" stroke-linejoin="round">
      <rect x="0" y="0" width="38" height="30" rx="8"/>
      <path d="M58 0l30 30M88 0l-30 30"/>
    </g>
  </g>
</svg>